# xmcd
#
# Track frame offsets:
#	150
#	14677
#	26830
#	41698
#	52535
#	68146
#	79323
#	91947
#	112513
#	128013
#	142970
#	153800
#	168806
#	180662
#
# Disc length: 2580 seconds
#
# Revision: 0
# Processed by: cddbd v1.5PL3 Copyright (c) Steve Scherf et al.
# Submitted via: dBpowerAMP V4.0
#
DISCID=a00a120e
DTITLE=Dixie Aces - Smokey Places
DYEAR=1900
DGENRE=
TTITLE0=Smokey Places
TTITLE1=Till the day
TTITLE2=Why did it had to end this way
TTITLE3=Devil in disquise
TTITLE4=I'm not gonna cry for you
TTITLE5=Travelin' Man
TTITLE6=Streets of Bakersfield
TTITLE7=I should have been true
TTITLE8=Nobody wins
TTITLE9=Wasting Time with you
TTITLE10=Burning bridges
TTITLE11=Thank God for the radio
TTITLE12=Mistery train
TTITLE13=Something Stupid
EXTD=
EXTT0=
EXTT1=
EXTT2=
EXTT3=
EXTT4=
EXTT5=
EXTT6=
EXTT7=
EXTT8=
EXTT9=
EXTT10=
EXTT11=
EXTT12=
EXTT13=
PLAYORDER=
